# Blender v2.81 (sub 16) OBJ File: 'animation.blend'
# www.blender.org
mtllib 004cube.mtl
o Cube
v 0.294093 4.774729 -0.438650
v -1.662405 5.183106 -0.365544
v -0.099253 3.060809 -1.391413
v -2.055750 3.469186 -1.318307
v 0.162198 3.828311 1.318307
v -1.794299 4.236689 1.391413
v 0.756216 1.175014 -0.066348
v -2.187645 2.522769 0.438650
vt 0.625000 0.500000
vt 0.875000 0.500000
vt 0.875000 0.750000
vt 0.625000 0.750000
vt 0.375000 0.750000
vt 0.625000 1.000000
vt 0.375000 1.000000
vt 0.375000 0.000000
vt 0.625000 0.000000
vt 0.625000 0.250000
vt 0.375000 0.250000
vt 0.125000 0.500000
vt 0.375000 0.500000
vt 0.125000 0.750000
vn 0.9854 0.1133 -0.1272
vn -0.3325 -0.7320 -0.5946
vn -0.0659 -0.4732 0.8785
vn -0.9782 0.2042 0.0366
vn 0.0659 0.4732 -0.8785
vn 0.1967 0.8570 0.4764
usemtl Material
s off
f 1/1/1 5/2/1 7/3/1 3/4/1
f 4/5/2 3/4/2 7/6/2 8/7/2
f 8/8/3 7/9/3 5/10/3 6/11/3
f 6/12/4 2/13/4 4/5/4 8/14/4
f 2/13/5 1/1/5 3/4/5 4/5/5
f 6/11/6 5/10/6 1/1/6 2/13/6
