# Blender v2.81 (sub 16) OBJ File: 'mayan_mapv2.blend'
# www.blender.org
mtllib groundswalls.mtl
o terrain.001
v -1109.603882 100.964630 -598.940613
v -380.000061 100.964630 -598.940613
v -1109.603882 100.964523 -1215.793213
v -380.000061 100.964523 -1215.793213
v 1109.603882 100.964630 -598.940613
v 380.000061 100.964630 -598.940613
v 1109.603882 100.964523 -1215.793213
v 380.000061 100.964523 -1215.793213
v -1109.603882 100.964821 598.940613
v -380.000061 100.964821 598.940613
v -1109.603882 100.964920 1215.793213
v -380.000061 100.964920 1215.793213
v 1109.603882 100.964821 598.940613
v 380.000061 100.964821 598.940613
v 1109.603882 100.964920 1215.793213
v 380.000061 100.964920 1215.793213
vt -1.798626 -1.424825
vt 2.777141 -1.424825
vt 2.777141 2.403341
vt -1.798626 2.403341
vt -1.798626 -1.424825
vt -1.798626 2.403341
vt 2.777141 2.403341
vt 2.777141 -1.424825
vt -1.798626 -1.424825
vt -1.798626 2.403341
vt 2.777141 2.403341
vt 2.777141 -1.424825
vt -1.798626 -1.424825
vt 2.777141 -1.424825
vt 2.777141 2.403341
vt -1.798626 2.403341
vn 0.0000 1.0000 -0.0000
usemtl terrain
s 1
f 1/1/1 2/2/1 4/3/1 3/4/1
f 5/5/1 7/6/1 8/7/1 6/8/1
f 9/9/1 11/10/1 12/11/1 10/12/1
f 13/13/1 14/14/1 16/15/1 15/16/1
o terrain.003
v -1041.824707 -0.122302 1248.965088
v 1041.824707 -0.122302 1248.965088
v -1041.824707 -0.122709 -1248.965088
v 1041.824707 -0.122709 -1248.965088
vt -9.772838 -12.198853
vt 10.772838 -12.198853
vt 10.772838 13.198853
vt -9.772838 13.198853
vn 0.0000 1.0000 -0.0000
usemtl terrain
s 1
f 17/17/2 18/18/2 20/19/2 19/20/2
o Puente.003
v 998.167236 1.000000 1200.000000
v 998.167236 299.482147 1200.000000
v 960.000122 1.000000 1200.000000
v 960.000122 299.482147 1200.000000
v 998.167114 1.000000 -1199.999878
v 998.167114 299.482147 -1199.999878
v 960.000000 1.000000 -1199.999878
v 960.000000 299.482147 -1199.999878
v -998.167114 1.000000 1200.000000
v -998.167114 299.482147 1200.000000
v -960.000000 1.000000 1200.000000
v -960.000000 299.482147 1200.000000
v -998.167236 1.000000 -1199.999878
v -998.167236 299.482147 -1199.999878
v -960.000122 1.000000 -1199.999878
v -960.000122 299.482147 -1199.999878
vt 0.491757 0.333326
vt 0.000170 0.333326
vt 0.000171 0.000171
vt 0.491757 0.000171
vt -7.084095 3.010332
vt -7.084095 1.062154
vt 8.000225 1.062154
vt 8.000221 3.010332
vt 0.000170 0.825253
vt 0.000170 0.333666
vt 0.333325 0.333666
vt 0.333325 0.825253
vt 0.666675 0.174747
vt 0.666675 0.000170
vt 0.999830 0.000170
vt 0.999830 0.174747
vt 0.491757 0.333326
vt 0.491757 0.000171
vt 0.000171 0.000171
vt 0.000170 0.333326
vt -7.084095 3.010332
vt 8.000221 3.010332
vt 8.000225 1.062154
vt -7.084095 1.062154
vt 0.000170 0.825253
vt 0.333325 0.825253
vt 0.333325 0.333666
vt 0.000170 0.333666
vt 0.666675 0.174747
vt 0.999830 0.174747
vt 0.999830 0.000170
vt 0.666675 0.000170
vn 0.0000 0.0000 1.0000
vn -1.0000 0.0000 0.0000
vn 0.0000 0.0000 -1.0000
vn 0.0000 1.0000 0.0000
vn 1.0000 0.0000 -0.0000
usemtl brick.000
s off
f 21/21/3 22/22/3 24/23/3 23/24/3
f 23/25/4 24/26/4 28/27/4 27/28/4
f 27/29/5 28/30/5 26/31/5 25/32/5
f 28/33/6 24/34/6 22/35/6 26/36/6
f 29/37/3 31/38/3 32/39/3 30/40/3
f 31/41/7 35/42/7 36/43/7 32/44/7
f 35/45/5 33/46/5 34/47/5 36/48/5
f 36/49/6 34/50/6 30/51/6 32/52/6
o Puente.004
v 382.260437 -34.563461 1173.425293
v 382.260437 98.163818 1173.425293
v 382.260498 98.163818 588.944458
v 382.260498 -34.563461 588.944458
vt -0.278832 3.010332
vt -0.278830 1.062154
vt 7.688252 1.062154
vt 7.688249 3.010332
vn -1.0000 0.0000 -0.0000
usemtl brick.002
s off
f 37/53/8 38/54/8 39/55/8 40/56/8
o Puente.005
v 382.260437 -34.563461 -644.250122
v 382.260437 98.163818 -644.250122
v 382.260498 98.163818 -1228.730957
v 382.260498 -34.563461 -1228.730957
vt -0.278832 3.010332
vt -0.278830 1.062154
vt 7.688252 1.062154
vt 7.688249 3.010332
vn -1.0000 0.0000 -0.0000
usemtl brick.005
s off
f 41/57/9 42/58/9 43/59/9 44/60/9
o Puente.006
v -389.341919 -40.575813 -1230.500000
v -389.341919 100.197487 -1230.500000
v -389.342102 100.197487 -610.587585
v -389.342102 -40.575813 -610.587585
vt -0.278832 3.010332
vt -0.278830 1.062154
vt 7.688252 1.062154
vt 7.688249 3.010332
vn 1.0000 0.0000 0.0000
usemtl brick.006
s off
f 45/61/10 46/62/10 47/63/10 48/64/10
o Puente.002
v -373.545532 -34.563461 625.233521
v -373.545532 98.163818 625.233582
v -373.545532 98.163818 1209.714355
v -373.545532 -34.563461 1209.714355
vt -0.278832 3.010332
vt -0.278830 1.062154
vt 7.688252 1.062154
vt 7.688249 3.010332
vn 1.0000 0.0000 0.0000
usemtl brick.003
s off
f 49/65/11 50/66/11 51/67/11 52/68/11
