# Blender v2.81 (sub 16) OBJ File: 'mayan_mapv2.blend'
# www.blender.org
mtllib ramp3.mtl
o ramp_low.002
v 644.913696 0.980244 407.447113
v 644.913696 0.980228 606.862427
v 644.913696 100.727798 606.862488
v 944.156250 0.980244 407.087708
v 944.156250 0.980228 606.862427
v 944.156250 100.727798 606.862488
v 925.752136 100.727798 606.862488
v 925.752136 0.980228 606.862427
v 664.021118 100.727798 606.862488
v 664.021118 0.980228 606.862427
v 664.021118 105.658791 604.395935
v 644.913696 105.658791 604.395935
v 644.913696 5.911247 404.980652
v 925.752136 5.911247 406.174805
v 944.156250 5.911247 406.174805
v 944.156250 105.658791 604.395935
v 925.752136 105.658791 604.395935
v 664.021118 5.911247 404.980652
v 925.752136 3.048149 406.664490
v 925.752136 0.980244 407.087708
v 664.021118 0.980244 407.048676
v 664.021118 3.048153 406.135773
vt 0.985047 0.358542
vt 0.846724 0.102167
vt 0.341486 0.374759
vt 0.411669 0.006558
vt 0.411669 0.298564
vt 0.993197 0.006558
vt 0.012051 0.989476
vt 0.020346 0.989477
vt 0.020346 0.014033
vt 0.011741 0.014023
vt 0.288584 0.829079
vt 0.383879 0.829079
vt 0.383879 0.802663
vt 0.288584 0.802663
vt 0.384054 0.832071
vt 0.288669 0.832071
vt 0.288668 0.859522
vt 0.384054 0.859522
vt 0.982567 0.397976
vt 0.423484 0.397976
vt 0.423484 0.989380
vt 0.982567 0.989380
vt 0.049823 0.983512
vt 0.049823 0.015956
vt 0.033575 0.015956
vt 0.033575 0.983512
vt 0.179072 0.982280
vt 0.219343 0.982280
vt 0.219343 0.189108
vt 0.179071 0.189108
vt 0.163125 0.982836
vt 0.163125 0.054960
vt 0.136558 0.054965
vt 0.133407 0.982836
vt 0.382470 0.878570
vt 0.382484 0.867446
vt 0.289083 0.866993
vt 0.289083 0.893857
vt 0.382470 0.893857
vt 0.230223 0.979726
vt 0.269013 0.979726
vt 0.269012 0.189751
vt 0.230224 0.189751
vt 0.094015 0.055202
vt 0.094015 0.982379
vt 0.121956 0.982379
vt 0.121956 0.055202
vt 0.080465 0.982752
vt 0.080465 0.015728
vt 0.062139 0.015728
vt 0.062139 0.982752
vt 0.289083 0.906733
vt 0.289083 0.922269
vt 0.382963 0.922269
vt 0.382963 0.895477
vt 0.289083 0.895476
vt 0.290187 0.934681
vt 0.288183 0.934681
vt 0.288183 0.981282
vt 0.290187 0.981282
vt 0.318678 0.981282
vt 0.320758 0.981282
vt 0.320758 0.934765
vt 0.318678 0.934672
vt 0.323824 0.934937
vt 0.323824 0.937747
vt 0.323824 0.977301
vt 0.323824 0.980631
vt 0.369518 0.980631
vt 0.369518 0.977301
vt 0.369518 0.937747
vt 0.369518 0.934937
vn 1.0000 0.0000 0.0000
vn -1.0000 0.0000 0.0000
vn 0.0010 -0.3074 -0.9516
vn 0.0000 0.4474 0.8944
vn 0.0004 0.8990 -0.4380
vn 0.0000 0.8944 -0.4474
vn -0.0106 -0.4177 -0.9085
vn 0.0000 0.8933 -0.4495
vn 0.0011 -0.1820 -0.9833
vn -0.0000 -1.0000 -0.0000
vn 0.0000 -0.0000 1.0000
usemtl ramp
s 1
f 6/1/1 5/2/1 4/3/1
f 2/4/2 3/5/2 1/6/2
f 19/7/3 20/8/3 21/9/3 22/10/3
f 11/11/4 12/12/4 3/13/4 9/14/4
f 16/15/4 17/16/4 7/17/4 6/18/4
f 19/19/5 22/20/5 9/21/5 7/22/5
f 18/23/1 11/24/1 9/25/1 22/26/1
f 12/27/6 11/28/6 18/29/6 13/30/6
f 1/31/2 3/32/2 12/33/2 13/34/2
f 22/35/7 21/36/7 1/37/7 13/38/7 18/39/7
f 15/40/8 14/41/8 17/42/8 16/43/8
f 6/44/1 4/45/1 15/46/1 16/47/1
f 17/48/2 14/49/2 19/50/2 7/51/2
f 19/52/9 14/53/9 15/54/9 4/55/9 20/56/9
f 20/57/10 4/58/10 5/59/10 8/60/10 10/61/10 2/62/10 1/63/10 21/64/10
f 6/65/11 7/66/11 9/67/11 3/68/11 2/69/11 10/70/11 8/71/11 5/72/11
