# Blender v2.81 (sub 16) OBJ File: 'hierva.blend'
# www.blender.org
mtllib hierva.mtl
o grass_Cube
v 0.617399 1.593117 0.498840
v 0.179341 0.000022 0.151096
v 0.044804 0.000022 -0.011404
v 0.341841 0.000022 0.016559
v 0.207304 0.000022 -0.145941
v 0.218719 0.655210 0.125568
v 0.239724 0.701384 -0.064223
v 0.133467 0.699437 0.024940
v 0.324975 0.657157 0.036405
v 0.365379 1.212031 0.160349
v 0.341808 1.141307 0.256260
v 0.304611 1.211771 0.215899
v 0.402576 1.141567 0.200710
v 0.518989 1.179125 -0.275510
v 0.519164 -0.004036 -0.055009
v 0.482661 -0.004036 0.066681
v 0.397474 -0.004036 -0.091512
v 0.360971 -0.004036 0.030178
v 0.499841 0.380821 -0.066299
v 0.396038 0.393675 -0.011015
v 0.476057 0.393675 0.012989
v 0.419822 0.380821 -0.090303
v 0.449187 0.877550 -0.129098
v 0.509740 0.848798 -0.158395
v 0.496678 0.877550 -0.114852
v 0.462248 0.848798 -0.172641
v -0.073468 0.689470 -0.195399
v 0.032015 0.000022 -0.081514
v 0.032015 0.000022 0.034503
v -0.178950 0.000022 -0.081514
v -0.178950 0.000022 0.034503
v -0.004106 0.390936 -0.086320
v -0.142830 0.412281 -0.010728
v -0.004106 0.412281 -0.010728
v -0.142830 0.390936 -0.086320
v -0.114634 0.607656 -0.063894
v -0.032302 0.559911 -0.105407
v -0.032302 0.607656 -0.063894
v -0.114634 0.559911 -0.105407
v -0.715326 1.132984 0.243530
v -0.380206 0.000022 -0.040003
v -0.206128 0.000022 -0.159180
v -0.261029 0.000022 0.134075
v -0.086951 0.000022 0.014897
v -0.374298 0.436660 0.005998
v -0.209254 0.485455 0.045309
v -0.279536 0.491980 -0.056111
v -0.304016 0.430135 0.107418
v -0.403231 0.971145 0.133562
v -0.455828 0.924801 0.112630
v -0.428628 0.973503 0.096914
v -0.430432 0.922443 0.149278
v 0.600000 1.964695 0.459969
v 0.494517 0.000022 0.109342
v 0.494517 0.000022 -0.101623
v 0.705483 0.000022 0.109342
v 0.705483 0.000022 -0.101623
v 0.530638 0.639088 0.118081
v 0.669362 0.660432 -0.019375
v 0.530638 0.660432 -0.019375
v 0.669362 0.639088 0.118081
v 0.641166 1.463922 0.193796
v 0.558834 1.416177 0.269283
v 0.558834 1.463922 0.193796
v 0.641166 1.416177 0.269283
v 1.012729 1.142359 -0.361196
v 0.767464 -0.008657 0.010307
v 0.800192 -0.008657 -0.058261
v 0.931034 -0.008657 0.093703
v 0.963762 -0.008657 0.025136
v 0.773521 0.517842 0.072132
v 0.910082 0.536418 0.052063
v 0.802524 0.536418 -0.002776
v 0.881079 0.517842 0.126971
v 0.973883 0.994510 -0.165640
v 0.899317 1.051872 -0.174333
v 0.909458 0.995138 -0.196996
v 0.963742 1.051244 -0.142977
v -0.387094 1.394874 -0.287754
v -0.404341 0.000022 -0.041688
v -0.444901 0.000022 0.087296
v -0.533325 0.000022 -0.082249
v -0.573885 0.000022 0.046735
v -0.431791 0.655210 -0.053981
v -0.541214 0.701384 0.000829
v -0.456233 0.699437 0.026936
v -0.516773 0.657157 -0.080088
v -0.464166 1.212031 -0.144998
v -0.404356 1.141307 -0.165726
v -0.413113 1.211771 -0.131655
v -0.455408 1.141567 -0.179069
vt 0.553473 0.750000
vt 0.625000 1.000000
vt 0.553473 1.000000
vt 0.553473 0.000000
vt 0.625000 0.250000
vt 0.553473 0.250000
vt 0.125000 0.500000
vt 0.375000 0.500000
vt 0.375000 0.750000
vt 0.125000 0.750000
vt 0.553473 0.500000
vt 0.625000 0.750000
vt 0.625000 0.500000
vt 0.375000 0.250000
vt 0.454844 0.250000
vt 0.454844 0.500000
vt 0.454844 0.750000
vt 0.375000 0.000000
vt 0.454844 0.000000
vt 0.454844 1.000000
vt 0.375000 1.000000
vt 0.553473 0.750000
vt 0.625000 1.000000
vt 0.553473 1.000000
vt 0.553473 0.000000
vt 0.625000 0.250000
vt 0.553473 0.250000
vt 0.125000 0.500000
vt 0.375000 0.500000
vt 0.375000 0.750000
vt 0.125000 0.750000
vt 0.553473 0.500000
vt 0.625000 0.750000
vt 0.625000 0.500000
vt 0.375000 0.250000
vt 0.454844 0.250000
vt 0.454844 0.500000
vt 0.454844 0.750000
vt 0.375000 0.000000
vt 0.454844 0.000000
vt 0.454844 1.000000
vt 0.375000 1.000000
vt 0.553473 0.750000
vt 0.625000 1.000000
vt 0.553473 1.000000
vt 0.553473 0.000000
vt 0.625000 0.250000
vt 0.553473 0.250000
vt 0.125000 0.500000
vt 0.375000 0.500000
vt 0.375000 0.750000
vt 0.125000 0.750000
vt 0.553473 0.500000
vt 0.625000 0.750000
vt 0.625000 0.500000
vt 0.375000 0.250000
vt 0.454844 0.250000
vt 0.454844 0.500000
vt 0.454844 0.750000
vt 0.375000 0.000000
vt 0.454844 0.000000
vt 0.454844 1.000000
vt 0.375000 1.000000
vt 0.553473 0.750000
vt 0.625000 1.000000
vt 0.553473 1.000000
vt 0.553473 0.000000
vt 0.625000 0.250000
vt 0.553473 0.250000
vt 0.125000 0.500000
vt 0.375000 0.500000
vt 0.375000 0.750000
vt 0.125000 0.750000
vt 0.553473 0.500000
vt 0.625000 0.750000
vt 0.625000 0.500000
vt 0.375000 0.250000
vt 0.454844 0.250000
vt 0.454844 0.500000
vt 0.454844 0.750000
vt 0.375000 0.000000
vt 0.454844 0.000000
vt 0.454844 1.000000
vt 0.375000 1.000000
vt 0.553473 0.750000
vt 0.625000 1.000000
vt 0.553473 1.000000
vt 0.553473 0.000000
vt 0.625000 0.250000
vt 0.553473 0.250000
vt 0.125000 0.500000
vt 0.375000 0.500000
vt 0.375000 0.750000
vt 0.125000 0.750000
vt 0.553473 0.500000
vt 0.625000 0.750000
vt 0.625000 0.500000
vt 0.375000 0.250000
vt 0.454844 0.250000
vt 0.454844 0.500000
vt 0.454844 0.750000
vt 0.375000 0.000000
vt 0.454844 0.000000
vt 0.454844 1.000000
vt 0.375000 1.000000
vt 0.553473 0.750000
vt 0.625000 1.000000
vt 0.553473 1.000000
vt 0.553473 0.000000
vt 0.625000 0.250000
vt 0.553473 0.250000
vt 0.125000 0.500000
vt 0.375000 0.500000
vt 0.375000 0.750000
vt 0.125000 0.750000
vt 0.553473 0.500000
vt 0.625000 0.750000
vt 0.625000 0.500000
vt 0.375000 0.250000
vt 0.454844 0.250000
vt 0.454844 0.500000
vt 0.454844 0.750000
vt 0.375000 0.000000
vt 0.454844 0.000000
vt 0.454844 1.000000
vt 0.375000 1.000000
vt 0.553473 0.750000
vt 0.625000 1.000000
vt 0.553473 1.000000
vt 0.553473 0.000000
vt 0.625000 0.250000
vt 0.553473 0.250000
vt 0.125000 0.500000
vt 0.375000 0.500000
vt 0.375000 0.750000
vt 0.125000 0.750000
vt 0.553473 0.500000
vt 0.625000 0.750000
vt 0.625000 0.500000
vt 0.375000 0.250000
vt 0.454844 0.250000
vt 0.454844 0.500000
vt 0.454844 0.750000
vt 0.375000 0.000000
vt 0.454844 0.000000
vt 0.454844 1.000000
vt 0.375000 1.000000
vn -0.4553 0.7404 -0.4946
vn 0.7747 0.0478 -0.6306
vn 0.0000 -1.0000 0.0000
vn -0.6976 0.0415 0.7153
vn 0.5263 -0.6285 0.5727
vn 0.6398 -0.0076 0.7685
vn -0.7602 0.0667 0.6462
vn 0.7701 0.0388 -0.6367
vn -0.6357 0.1192 -0.7627
vn 0.6177 -0.3429 0.7077
vn -0.7514 0.0089 0.6598
vn 0.7840 0.0804 -0.6155
vn -0.5898 0.4449 -0.6740
vn -0.2537 0.4693 0.8458
vn -0.9442 0.0614 -0.3237
vn 0.9665 0.0614 0.2494
vn 0.2714 -0.3284 -0.9047
vn 0.2873 -0.0137 -0.9577
vn 0.9573 0.0553 0.2836
vn -0.9554 0.0553 -0.2901
vn -0.2851 0.1236 0.9505
vn 0.2820 -0.1910 -0.9402
vn 0.9603 0.0332 0.2768
vn -0.9542 0.0332 -0.2975
vn -0.2777 0.2564 0.9258
vn 0.0000 0.8491 0.5283
vn -0.9656 0.1706 -0.1962
vn 0.9656 0.1706 -0.1962
vn 0.0000 -0.5705 -0.8213
vn 0.0000 -0.0123 -0.9999
vn 0.9960 0.0890 -0.0099
vn -0.9960 0.0890 -0.0099
vn 0.0000 0.1091 0.9940
vn 0.0000 -0.1122 -0.9937
vn 0.9873 0.1368 -0.0807
vn -0.9873 0.1368 -0.0807
vn 0.0000 0.2626 0.9649
vn 0.3898 0.8961 -0.2125
vn 0.3722 0.0902 0.9237
vn -0.4662 -0.0250 -0.8843
vn -0.5025 -0.8124 0.2959
vn -0.8236 -0.0478 0.5652
vn -0.5695 0.0898 -0.8171
vn 0.5431 0.0946 0.8343
vn 0.8034 0.2356 -0.5469
vn -0.8029 -0.2521 0.5402
vn -0.5827 0.0780 -0.8089
vn 0.5058 0.0512 0.8611
vn 0.7659 0.3977 -0.5052
vn 0.0000 0.4693 -0.8830
vn 0.9974 0.0614 0.0388
vn -0.9974 0.0614 0.0388
vn 0.0000 -0.3284 0.9446
vn 0.0000 -0.0137 0.9999
vn -0.9985 0.0553 0.0034
vn 0.9985 0.0553 0.0034
vn -0.0000 0.1236 -0.9923
vn 0.0000 -0.1910 0.9816
vn -0.9994 0.0332 0.0108
vn 0.9994 0.0332 0.0108
vn 0.0000 0.2564 -0.9666
vn 0.2595 -0.7945 -0.5491
vn 0.9660 0.0737 0.2477
vn -0.8637 0.0461 -0.5019
vn -0.1610 0.9231 0.3493
vn -0.4520 -0.0989 0.8865
vn -0.9198 0.0498 -0.3893
vn 0.9135 0.0658 0.4015
vn 0.4524 0.0884 -0.8874
vn -0.3962 0.4614 0.7938
vn -0.9211 0.0442 -0.3868
vn 0.9325 0.0388 0.3590
vn 0.4018 -0.4365 -0.8050
vn -0.1885 0.6525 0.7340
vn -0.9154 0.0773 -0.3952
vn 0.9803 0.0273 0.1955
vn 0.2256 -0.4349 -0.8718
vn 0.2974 -0.0049 -0.9547
vn 0.9569 0.0428 0.2873
vn -0.9535 0.0249 -0.3005
vn -0.2960 0.0767 0.9521
vn 0.2678 -0.2278 -0.9362
vn 0.9622 0.0057 0.2721
vn -0.9446 0.0516 -0.3242
vn -0.2609 0.3034 0.9165
usemtl Material
s off
f 12/1/1 1/2/1 10/3/1
f 10/4/2 1/5/2 13/6/2
f 4/7/3 2/8/3 3/9/3 5/10/3
f 11/11/4 1/12/4 12/1/4
f 13/6/5 1/13/5 11/11/5
f 4/14/6 9/15/6 6/16/6 2/8/6
f 2/8/7 6/16/7 8/17/7 3/9/7
f 5/18/8 7/19/8 9/15/8 4/14/8
f 3/9/9 8/17/9 7/20/9 5/21/9
f 9/15/10 13/6/10 11/11/10 6/16/10
f 6/16/11 11/11/11 12/1/11 8/17/11
f 7/19/12 10/4/12 13/6/12 9/15/12
f 8/17/13 12/1/13 10/3/13 7/20/13
f 25/22/14 14/23/14 23/24/14
f 23/25/15 14/26/15 26/27/15
f 17/28/3 15/29/3 16/30/3 18/31/3
f 24/32/16 14/33/16 25/22/16
f 26/27/17 14/34/17 24/32/17
f 17/35/18 22/36/18 19/37/18 15/29/18
f 15/29/19 19/37/19 21/38/19 16/30/19
f 18/39/20 20/40/20 22/36/20 17/35/20
f 16/30/21 21/38/21 20/41/21 18/42/21
f 22/36/22 26/27/22 24/32/22 19/37/22
f 19/37/23 24/32/23 25/22/23 21/38/23
f 20/40/24 23/25/24 26/27/24 22/36/24
f 21/38/25 25/22/25 23/24/25 20/41/25
f 38/43/26 27/44/26 36/45/26
f 36/46/27 27/47/27 39/48/27
f 30/49/3 28/50/3 29/51/3 31/52/3
f 37/53/28 27/54/28 38/43/28
f 39/48/29 27/55/29 37/53/29
f 30/56/30 35/57/30 32/58/30 28/50/30
f 28/50/31 32/58/31 34/59/31 29/51/31
f 31/60/32 33/61/32 35/57/32 30/56/32
f 29/51/33 34/59/33 33/62/33 31/63/33
f 35/57/34 39/48/34 37/53/34 32/58/34
f 32/58/35 37/53/35 38/43/35 34/59/35
f 33/61/36 36/46/36 39/48/36 35/57/36
f 34/59/37 38/43/37 36/45/37 33/62/37
f 51/64/38 40/65/38 49/66/38
f 49/67/39 40/68/39 52/69/39
f 43/70/3 41/71/3 42/72/3 44/73/3
f 50/74/40 40/75/40 51/64/40
f 52/69/41 40/76/41 50/74/41
f 43/77/42 48/78/42 45/79/42 41/71/42
f 41/71/43 45/79/43 47/80/43 42/72/43
f 44/81/44 46/82/44 48/78/44 43/77/44
f 42/72/45 47/80/45 46/83/45 44/84/45
f 48/78/46 52/69/46 50/74/46 45/79/46
f 45/79/47 50/74/47 51/64/47 47/80/47
f 46/82/48 49/67/48 52/69/48 48/78/48
f 47/80/49 51/64/49 49/66/49 46/83/49
f 64/85/50 53/86/50 62/87/50
f 62/88/51 53/89/51 65/90/51
f 56/91/3 54/92/3 55/93/3 57/94/3
f 63/95/52 53/96/52 64/85/52
f 65/90/53 53/97/53 63/95/53
f 56/98/54 61/99/54 58/100/54 54/92/54
f 54/92/55 58/100/55 60/101/55 55/93/55
f 57/102/56 59/103/56 61/99/56 56/98/56
f 55/93/57 60/101/57 59/104/57 57/105/57
f 61/99/58 65/90/58 63/95/58 58/100/58
f 58/100/59 63/95/59 64/85/59 60/101/59
f 59/103/60 62/88/60 65/90/60 61/99/60
f 60/101/61 64/85/61 62/87/61 59/104/61
f 77/106/62 66/107/62 75/108/62
f 75/109/63 66/110/63 78/111/63
f 69/112/3 67/113/3 68/114/3 70/115/3
f 76/116/64 66/117/64 77/106/64
f 78/111/65 66/118/65 76/116/65
f 69/119/66 74/120/66 71/121/66 67/113/66
f 67/113/67 71/121/67 73/122/67 68/114/67
f 70/123/68 72/124/68 74/120/68 69/119/68
f 68/114/69 73/122/69 72/125/69 70/126/69
f 74/120/70 78/111/70 76/116/70 71/121/70
f 71/121/71 76/116/71 77/106/71 73/122/71
f 72/124/72 75/109/72 78/111/72 74/120/72
f 73/122/73 77/106/73 75/108/73 72/125/73
f 90/127/74 79/128/74 88/129/74
f 88/130/75 79/131/75 91/132/75
f 82/133/3 80/134/3 81/135/3 83/136/3
f 89/137/76 79/138/76 90/127/76
f 91/132/77 79/139/77 89/137/77
f 82/140/78 87/141/78 84/142/78 80/134/78
f 80/134/79 84/142/79 86/143/79 81/135/79
f 83/144/80 85/145/80 87/141/80 82/140/80
f 81/135/81 86/143/81 85/146/81 83/147/81
f 87/141/82 91/132/82 89/137/82 84/142/82
f 84/142/83 89/137/83 90/127/83 86/143/83
f 85/145/84 88/130/84 91/132/84 87/141/84
f 86/143/85 90/127/85 88/129/85 85/146/85
