# Blender v2.81 (sub 16) OBJ File: ''
# www.blender.org
mtllib powerup.mtl
o box_low
v -4.812364 -4.812363 4.812365
v -4.812364 4.812365 4.812363
v -4.812364 -4.812365 -4.812363
v -4.812364 4.812363 -4.812365
v 4.812364 -4.812363 4.812365
v 4.812364 4.812365 4.812363
v 4.812364 -4.812365 -4.812363
v 4.812364 4.812363 -4.812365
v -4.812364 -3.740101 3.740102
v -4.812364 3.740102 3.740101
v -4.812364 3.740101 -3.740102
v -4.812364 -3.740102 -3.740101
v -3.740101 -3.740102 -4.812363
v -3.740101 3.740101 -4.812364
v 3.740101 3.740101 -4.812364
v 3.740101 -3.740102 -4.812363
v 4.812364 -3.740102 -3.740101
v 4.812364 3.740101 -3.740102
v 4.812364 3.740102 3.740101
v 4.812364 -3.740101 3.740102
v 3.740101 -3.740101 4.812364
v 3.740101 3.740102 4.812363
v -3.740101 3.740102 4.812363
v -3.740101 -3.740101 4.812364
v -3.740101 -4.812364 -3.740101
v 3.740101 -4.812364 -3.740101
v 3.740101 -4.812363 3.740102
v -3.740101 -4.812363 3.740102
v 3.740101 4.812363 -3.740102
v -3.740101 4.812363 -3.740102
v -3.740101 4.812364 3.740101
v 3.740101 4.812364 3.740101
v -4.237521 -3.293341 3.293342
v -4.237521 3.293342 3.293341
v -4.237521 -3.293342 -3.293341
v -4.237521 3.293341 -3.293342
v -3.293342 3.293341 -4.237521
v -3.293342 -3.293342 -4.237520
v 3.293342 -3.293342 -4.237520
v 3.293342 3.293341 -4.237521
v 4.237521 3.293341 -3.293342
v 4.237521 -3.293342 -3.293341
v 4.237521 -3.293341 3.293342
v 4.237521 3.293342 3.293341
v 3.293342 3.293342 4.237520
v 3.293342 -3.293341 4.237521
v -3.293342 -3.293341 4.237521
v -3.293342 3.293342 4.237520
v 3.293342 -4.237521 -3.293341
v -3.293342 -4.237521 -3.293341
v -3.293342 -4.237520 3.293342
v 3.293342 -4.237520 3.293342
v -3.293342 4.237520 -3.293342
v 3.293342 4.237520 -3.293342
v 3.293342 4.237521 3.293341
v -3.293342 4.237521 3.293341
vt 0.301594 0.564656
vt 0.301594 0.816601
vt 0.286546 0.801554
vt 0.286546 0.579703
vt 0.949947 0.564656
vt 0.949947 0.816601
vt 0.934900 0.801554
vt 0.934900 0.579703
vt 0.049648 0.240479
vt 0.301593 0.240479
vt 0.286546 0.255526
vt 0.064695 0.255526
vt 0.949947 0.492425
vt 0.698001 0.492425
vt 0.713049 0.477377
vt 0.934900 0.477377
vt 0.049648 0.492425
vt 0.064695 0.477377
vt 0.373825 0.816601
vt 0.373825 0.564656
vt 0.388872 0.579703
vt 0.388872 0.801554
vt 0.986063 0.528540
vt 0.986063 0.852717
vt 0.661886 0.852717
vt 0.698002 0.816601
vt 0.661886 0.528540
vt 0.698002 0.564656
vt 0.337709 0.528540
vt 0.337709 0.852717
vt 0.013532 0.852717
vt 0.049648 0.816601
vt 0.013532 0.528540
vt 0.049648 0.564656
vt 0.661886 0.204363
vt 0.661886 0.528540
vt 0.625770 0.492425
vt 0.625770 0.240479
vt 0.337709 0.528540
vt 0.373825 0.492425
vt 0.337709 0.204363
vt 0.373825 0.240479
vt 0.661886 0.528540
vt 0.661886 0.852717
vt 0.625770 0.816601
vt 0.625770 0.564656
vt 0.337709 0.852717
vt 0.337709 0.528540
vt 0.661886 0.204363
vt 0.986063 0.204363
vt 0.949947 0.240479
vt 0.698001 0.240479
vt 0.986063 0.528540
vt 0.661886 0.528540
vt 0.337709 0.528540
vt 0.013532 0.528540
vt 0.301593 0.492425
vt 0.013532 0.204363
vt 0.337709 0.204363
vt 0.713049 0.801554
vt 0.713049 0.579703
vt 0.064695 0.801554
vt 0.064695 0.579703
vt 0.610723 0.255527
vt 0.610723 0.477377
vt 0.388872 0.477377
vt 0.388872 0.255527
vt 0.610723 0.579703
vt 0.610723 0.801554
vt 0.713049 0.255527
vt 0.934900 0.255527
vt 0.286546 0.477377
vn 0.1327 0.1326 -0.9822
vn 0.1327 -0.1326 -0.9822
vn 0.3490 -0.3490 -0.8697
vn 0.3490 0.3490 -0.8697
vn -0.9822 0.1327 -0.1326
vn -0.9822 -0.1327 -0.1326
vn -0.8697 -0.3490 -0.3490
vn -0.8697 0.3490 -0.3490
vn 0.0000 0.6136 -0.7896
vn 0.0000 -0.6136 -0.7896
vn 0.7896 0.6136 -0.0000
vn 0.1327 -0.1326 0.9822
vn 0.1327 0.1326 0.9822
vn 0.3490 0.3490 0.8697
vn 0.3490 -0.3490 0.8697
vn -1.0000 0.0000 0.0000
vn 0.0000 -0.0000 -1.0000
vn 1.0000 -0.0000 0.0000
vn -0.0000 0.0000 1.0000
vn 0.0000 -1.0000 0.0000
vn -0.0000 1.0000 -0.0000
vn -0.9822 0.1327 0.1326
vn -0.8697 0.3490 0.3490
vn 0.9822 0.1327 0.1326
vn 0.9822 -0.1327 0.1326
vn 0.8697 -0.3490 0.3490
vn 0.8697 0.3490 0.3490
vn -0.1327 0.1326 -0.9822
vn -0.3490 0.3490 -0.8697
vn -0.1327 0.1326 0.9822
vn -0.1327 -0.1326 0.9822
vn -0.3490 -0.3490 0.8697
vn -0.3490 0.3490 0.8697
vn -0.9822 -0.1327 0.1326
vn -0.8697 -0.3490 0.3490
vn 0.9822 0.1327 -0.1326
vn 0.8697 0.3490 -0.3490
vn 0.0000 -0.6136 0.7896
vn -0.1327 -0.1326 -0.9822
vn -0.3490 -0.3490 -0.8697
vn 0.0000 0.6136 0.7896
vn 0.9822 -0.1327 -0.1326
vn 0.8697 -0.3490 -0.3490
vn 0.7896 -0.6136 0.0000
vn -0.7896 0.6136 -0.0000
vn -0.7896 -0.6136 0.0000
usemtl Material.001
s 1
f 13/1/1 14/2/2 37/3/3 38/4/4
f 9/5/5 10/6/6 34/7/7 33/8/8
f 31/9/9 32/10/9 55/11/9 56/12/9
f 27/13/10 28/14/10 51/15/10 52/16/10
f 30/17/11 31/9/11 56/12/11 53/18/11
f 23/19/12 24/20/13 47/21/14 48/22/15
f 1/23/16 2/24/16 10/6/16 9/5/16
f 2/24/16 4/25/16 11/26/16 10/6/16
f 4/25/16 3/27/16 12/28/16 11/26/16
f 3/27/16 1/23/16 9/5/16 12/28/16
f 3/29/17 4/30/17 14/2/17 13/1/17
f 4/30/17 8/31/17 15/32/17 14/2/17
f 8/31/17 7/33/17 16/34/17 15/32/17
f 7/33/17 3/29/17 13/1/17 16/34/17
f 7/35/18 8/36/18 18/37/18 17/38/18
f 8/36/18 6/39/18 19/40/18 18/37/18
f 6/39/18 5/41/18 20/42/18 19/40/18
f 5/41/18 7/35/18 17/38/18 20/42/18
f 5/43/19 6/44/19 22/45/19 21/46/19
f 6/44/19 2/47/19 23/19/19 22/45/19
f 2/47/19 1/48/19 24/20/19 23/19/19
f 1/48/19 5/43/19 21/46/19 24/20/19
f 3/49/20 7/50/20 26/51/20 25/52/20
f 7/50/20 5/53/20 27/13/20 26/51/20
f 5/53/20 1/54/20 28/14/20 27/13/20
f 1/54/20 3/49/20 25/52/20 28/14/20
f 8/55/21 4/56/21 30/17/21 29/57/21
f 4/56/21 2/58/21 31/9/21 30/17/21
f 2/58/21 6/59/21 32/10/21 31/9/21
f 6/59/21 8/55/21 29/57/21 32/10/21
f 33/8/16 34/7/16 36/60/16 35/61/16
f 38/4/17 37/3/17 40/62/17 39/63/17
f 42/64/18 41/65/18 44/66/18 43/67/18
f 46/68/19 45/69/19 48/22/19 47/21/19
f 50/70/20 49/71/20 52/16/20 51/15/20
f 54/72/21 53/18/21 56/12/21 55/11/21
f 12/28/22 9/5/5 33/8/8 35/61/23
f 17/38/24 18/37/25 41/65/26 42/64/27
f 16/34/28 13/1/1 38/4/4 39/63/29
f 21/46/30 22/45/31 45/69/32 46/68/33
f 10/6/6 11/26/34 36/60/35 34/7/7
f 20/42/36 17/38/24 42/64/27 43/67/37
f 25/52/38 26/51/38 49/71/38 50/70/38
f 14/2/2 15/32/39 40/62/40 37/3/3
f 24/20/13 21/46/30 46/68/33 47/21/14
f 29/57/41 30/17/41 53/18/41 54/72/41
f 11/26/34 12/28/22 35/61/23 36/60/35
f 18/37/25 19/40/42 44/66/43 41/65/26
f 28/14/44 25/52/44 50/70/44 51/15/44
f 15/32/39 16/34/28 39/63/29 40/62/40
f 22/45/31 23/19/12 48/22/15 45/69/32
f 32/10/45 29/57/45 54/72/45 55/11/45
f 19/40/42 20/42/36 43/67/37 44/66/43
f 26/51/46 27/13/46 52/16/46 49/71/46
