# Blender v2.81 (sub 16) OBJ File: ''
# www.blender.org
mtllib TEST_BOX.mtl
o Cube_Cube.001
v 2.668997 2.668996 -2.668997
v 2.668997 -2.668997 -2.668996
v 2.668997 2.668997 2.668996
v 2.668997 -2.668996 2.668997
v -2.668997 2.668996 -2.668997
v -2.668997 -2.668997 -2.668996
v -2.668997 2.668997 2.668996
v -2.668997 -2.668996 2.668997
v 2.668997 1.868297 -1.868298
v 2.668997 -1.868298 -1.868297
v 2.668997 1.868298 1.868297
v 2.668997 -1.868297 1.868298
v -1.868298 -1.868297 2.668997
v -1.868298 1.868298 2.668996
v 1.868298 1.868298 2.668996
v 1.868298 -1.868297 2.668997
v 1.868298 -1.868298 -2.668996
v -1.868298 -1.868298 -2.668996
v 1.868298 1.868297 -2.668997
v -1.868298 1.868297 -2.668997
v -2.668997 -1.868298 -1.868297
v -2.668997 -1.868297 1.868298
v -2.668997 1.868298 1.868297
v -2.668997 1.868297 -1.868298
v -2.127985 -1.868298 -1.868297
v -2.127985 -1.868297 1.868298
v -2.127985 1.868298 1.868297
v -2.127985 1.868297 -1.868298
v 1.868298 -1.868298 -1.868297
v -1.868298 -1.868298 -1.868297
v 1.868298 1.868297 -1.868298
v -1.868298 1.868297 -1.868298
v -1.868298 -1.868297 1.868298
v -1.868298 1.868298 1.868297
v 1.868298 1.868298 1.868297
v 1.868298 -1.868297 1.868298
v 1.868298 1.868297 -1.868298
v 1.868298 -1.868298 -1.868297
v 1.868298 1.868298 1.868297
v 1.868298 -1.868297 1.868298
v 1.868298 2.668997 1.868297
v -1.868298 2.668997 1.868297
v 1.868298 2.668996 -1.868298
v -1.868298 2.668996 -1.868298
v 1.868298 1.868298 1.868297
v -1.868298 1.868298 1.868297
v 1.868298 1.868297 -1.868298
v -1.868298 1.868297 -1.868298
v -1.868298 -2.668997 -1.868297
v -1.868298 -2.668996 1.868298
v 1.868298 -2.668997 -1.868297
v 1.868298 -2.668996 1.868298
v -1.868298 -1.868298 -1.868297
v -1.868298 -1.868297 1.868298
v 1.868298 -1.868298 -1.868297
v 1.868298 -1.868297 1.868298
vt 0.011307 0.799653
vt 0.011307 0.551699
vt 0.048995 0.588892
vt 0.048995 0.762460
vt 0.536436 0.011158
vt 0.536436 0.259112
vt 0.498747 0.221919
vt 0.498747 0.048351
vt 0.285178 0.281428
vt 0.536436 0.281428
vt 0.498747 0.318621
vt 0.322867 0.318621
vt 0.810307 0.011158
vt 0.810307 0.259112
vt 0.772618 0.221919
vt 0.772618 0.048351
vt 0.011307 0.259112
vt 0.011307 0.011158
vt 0.048995 0.048351
vt 0.048995 0.221919
vt 0.262565 0.529383
vt 0.011307 0.529383
vt 0.048995 0.492189
vt 0.224876 0.492189
vt 0.984240 0.656459
vt 0.984240 0.830027
vt 0.946552 0.830027
vt 0.946552 0.656459
vt 0.262565 0.011158
vt 0.224876 0.048351
vt 0.262565 0.259112
vt 0.224876 0.221919
vt 0.864390 0.640838
vt 0.864390 0.467270
vt 0.902079 0.467270
vt 0.902079 0.640838
vt 0.285178 0.259112
vt 0.322867 0.221919
vt 0.285178 0.011158
vt 0.322867 0.048351
vt 0.546046 0.737540
vt 0.546046 0.911108
vt 0.508358 0.911108
vt 0.508358 0.737540
vt 0.262565 0.281428
vt 0.224876 0.318621
vt 0.011307 0.281428
vt 0.048995 0.318621
vt 0.054368 0.818621
vt 0.054368 0.992189
vt 0.028903 0.992189
vt 0.028903 0.818621
vt 0.536436 0.529383
vt 0.285178 0.529383
vt 0.322867 0.492189
vt 0.498747 0.492189
vt 0.923247 0.451649
vt 0.747367 0.451649
vt 0.747367 0.278081
vt 0.923247 0.278081
vt 0.998854 0.278081
vt 0.998854 0.451649
vt 0.973389 0.451649
vt 0.973389 0.278081
vt 0.943710 0.656459
vt 0.943710 0.830027
vt 0.918244 0.830027
vt 0.918244 0.656459
vt 0.026611 0.818621
vt 0.026611 0.992189
vt 0.001146 0.992189
vt 0.001146 0.818621
vt 0.731538 0.467270
vt 0.731538 0.640838
vt 0.555657 0.640838
vt 0.555657 0.467270
vt 0.741148 0.830027
vt 0.741148 0.656459
vt 0.778837 0.656459
vt 0.778837 0.830027
vt 0.504966 0.548351
vt 0.504966 0.721919
vt 0.467277 0.721919
vt 0.467277 0.548351
vt 0.943160 0.007811
vt 0.943160 0.181379
vt 0.905471 0.181379
vt 0.905471 0.007811
vt 0.281786 0.911108
vt 0.281786 0.737540
vt 0.457666 0.737540
vt 0.457666 0.911108
vt 0.970547 0.278081
vt 0.970547 0.451649
vt 0.932858 0.451649
vt 0.932858 0.278081
vt 0.984240 0.007811
vt 0.984240 0.181379
vt 0.946552 0.181379
vt 0.946552 0.007811
vt 0.782229 0.640838
vt 0.782229 0.467270
vt 0.819918 0.467270
vt 0.819918 0.640838
vt 0.731538 0.656459
vt 0.731538 0.830027
vt 0.555657 0.830027
vt 0.555657 0.656459
vt 0.943160 0.467270
vt 0.943160 0.640838
vt 0.905471 0.640838
vt 0.905471 0.467270
vt 0.984240 0.467270
vt 0.984240 0.640838
vt 0.946552 0.640838
vt 0.946552 0.467270
vt 0.823310 0.830027
vt 0.823310 0.656459
vt 0.860998 0.656459
vt 0.860998 0.830027
vt 0.778837 0.467270
vt 0.778837 0.640838
vt 0.741148 0.640838
vt 0.741148 0.467270
vt 0.262565 0.799653
vt 0.224876 0.762460
vt 0.262565 0.551699
vt 0.224876 0.588892
vt 0.731538 0.278081
vt 0.731538 0.451649
vt 0.555657 0.451649
vt 0.555657 0.278081
vt 0.823310 0.640838
vt 0.823310 0.467270
vt 0.860998 0.467270
vt 0.860998 0.640838
vt 0.864390 0.181379
vt 0.864390 0.007811
vt 0.902079 0.007811
vt 0.902079 0.181379
vt 0.467277 0.911108
vt 0.467277 0.737540
vt 0.504966 0.737540
vt 0.504966 0.911108
vt 0.819918 0.656459
vt 0.819918 0.830027
vt 0.782229 0.830027
vt 0.782229 0.656459
vt 0.559049 0.259112
vt 0.559049 0.011158
vt 0.596738 0.048351
vt 0.596738 0.221919
vt 0.281786 0.721919
vt 0.281786 0.548351
vt 0.457666 0.548351
vt 0.457666 0.721919
vt 0.864390 0.830027
vt 0.864390 0.656459
vt 0.902079 0.656459
vt 0.902079 0.830027
vt 0.860998 0.007811
vt 0.860998 0.181379
vt 0.823310 0.181379
vt 0.823310 0.007811
vt 0.508358 0.721919
vt 0.508358 0.548351
vt 0.546046 0.548351
vt 0.546046 0.721919
vn 0.0000 1.0000 -0.0000
vn 0.0000 0.0000 1.0000
vn -1.0000 -0.0000 0.0000
vn 0.0000 -1.0000 0.0000
vn 1.0000 -0.0000 0.0000
vn 0.0000 -0.0000 -1.0000
usemtl Material.001
s 1
f 7/1/1 3/2/1 41/3/1 42/4/1
f 7/5/2 8/6/2 13/7/2 14/8/2
f 5/9/3 6/10/3 21/11/3 24/12/3
f 8/13/4 6/14/4 49/15/4 50/16/4
f 1/17/5 3/18/5 11/19/5 9/20/5
f 6/21/6 5/22/6 20/23/6 18/24/6
f 12/25/1 10/26/1 38/27/1 40/28/1
f 3/18/5 4/29/5 12/30/5 11/19/5
f 2/31/5 1/17/5 9/20/5 10/32/5
f 4/29/5 2/31/5 10/32/5 12/30/5
f 15/33/4 14/34/4 34/35/4 35/36/4
f 8/6/2 4/37/2 16/38/2 13/7/2
f 3/39/2 7/5/2 14/8/2 15/40/2
f 4/37/2 3/39/2 15/40/2 16/38/2
f 17/41/1 18/42/1 30/43/1 29/44/1
f 2/45/6 6/21/6 18/24/6 17/46/6
f 5/22/6 1/47/6 19/48/6 20/23/6
f 1/47/6 2/45/6 17/46/6 19/48/6
f 23/49/4 24/50/4 28/51/4 27/52/4
f 8/53/3 7/54/3 23/55/3 22/56/3
f 6/10/3 8/53/3 22/56/3 21/11/3
f 7/54/3 5/9/3 24/12/3 23/55/3
f 26/57/3 27/58/3 28/59/3 25/60/3
f 22/61/6 23/62/6 27/63/6 26/64/6
f 24/65/2 21/66/2 25/67/2 28/68/2
f 21/69/1 22/70/1 26/71/1 25/72/1
f 30/73/6 32/74/6 31/75/6 29/76/6
f 20/77/4 19/78/4 31/79/4 32/80/4
f 19/81/3 17/82/3 29/83/3 31/84/3
f 18/85/5 20/86/5 32/87/5 30/88/5
f 36/89/2 35/90/2 34/91/2 33/92/2
f 14/93/5 13/94/5 33/95/5 34/96/5
f 13/97/1 16/98/1 36/99/1 33/100/1
f 16/101/3 15/102/3 35/103/3 36/104/3
f 38/105/5 37/106/5 39/107/5 40/108/5
f 11/109/6 12/110/6 40/111/6 39/112/6
f 9/113/4 11/114/4 39/115/4 37/116/4
f 10/117/2 9/118/2 37/119/2 38/120/2
f 43/121/2 44/122/2 48/123/2 47/124/2
f 5/125/1 7/1/1 42/4/1 44/126/1
f 3/2/1 1/127/1 43/128/1 41/3/1
f 1/127/1 5/125/1 44/126/1 43/128/1
f 47/129/1 48/130/1 46/131/1 45/132/1
f 41/133/3 43/134/3 47/135/3 45/136/3
f 44/137/5 42/138/5 46/139/5 48/140/5
f 42/141/6 41/142/6 45/143/6 46/144/6
f 52/145/6 50/146/6 54/147/6 56/148/6
f 2/149/4 4/150/4 52/151/4 51/152/4
f 6/14/4 2/149/4 51/152/4 49/15/4
f 4/150/4 8/13/4 50/16/4 52/151/4
f 53/153/4 55/154/4 56/155/4 54/156/4
f 50/157/5 49/158/5 53/159/5 54/160/5
f 51/161/3 52/162/3 56/163/3 55/164/3
f 49/165/2 51/166/2 55/167/2 53/168/2
